<svg width="1028" height="512" viewBox="0 0 1028 512" fill="none" xmlns="http://www.w3.org/2000/svg">
<g clip-path="url(#clip0_2741:6486)">
<rect width="1028" height="512" fill="#000046"/>
<path d="M857.41 81.0264L858.151 81.3192L858.151 81.3178L857.41 81.0264ZM846.596 95.4081L846.161 94.7414L846.158 94.743L846.596 95.4081ZM819.059 97.9165L819.364 97.1807L819.364 97.1807L819.059 97.9165ZM811.088 92.5652L810.501 93.1033L810.506 93.1085L811.088 92.5652ZM806.405 85.2071L805.665 85.5011L805.667 85.5046L806.405 85.2071ZM804.343 77.0686V76.2723H803.455L803.551 77.1553L804.343 77.0686ZM815.046 77.0686L815.834 76.956L815.736 76.2723H815.046V77.0686ZM816.997 83.3676L816.277 83.7085L816.281 83.7161L816.284 83.7237L816.997 83.3676ZM821.846 88.6074L821.415 89.277L821.423 89.2821L821.846 88.6074ZM841.022 87.4926L841.48 88.1438L841.48 88.1438L841.022 87.4926ZM848.157 77.2916L848.903 77.5699L848.904 77.568L848.157 77.2916ZM849.105 57.7257L849.461 58.438L849.505 58.4158L849.546 58.3883L849.105 57.7257ZM848.324 58.7291L847.621 58.3543L847.615 58.3665L848.324 58.7291ZM840.91 66.8676L841.347 67.5337L841.349 67.5325L840.91 66.8676ZM815.436 66.7561L815.032 67.4425L815.04 67.4471L815.436 66.7561ZM806.405 57.5028L805.708 57.8873L805.712 57.895L806.405 57.5028ZM806.517 29.6312L805.822 29.2429L805.819 29.2477L806.517 29.6312ZM816.216 19.8762L816.611 20.5676L816.611 20.5676L816.216 19.8762ZM846.429 20.3221L846.831 19.6349L846.831 19.6349L846.429 20.3221ZM857.299 32.92L856.577 33.2573L856.578 33.2591L857.299 32.92ZM843.809 30.5231L843.233 31.0731L843.239 31.0797L843.809 30.5231ZM818.39 30.5231L818.96 31.0797L818.963 31.0764L818.39 30.5231ZM818.39 56.1092L817.817 56.6625L817.821 56.6658L818.39 56.1092ZM843.809 56.1092L843.236 55.5558L843.236 55.5559L843.809 56.1092ZM860.516 54.9943C860.516 65.6803 859.22 74.2477 856.669 80.7349L858.151 81.3178C860.803 74.5753 862.109 65.788 862.109 54.9943H860.516ZM856.67 80.7335C854.112 87.2016 850.596 91.844 846.161 94.7414L847.032 96.0748C851.812 92.9519 855.506 88.0064 858.151 81.3192L856.67 80.7335ZM846.158 94.743C841.729 97.6596 836.608 99.1269 830.765 99.1269V100.72C836.889 100.72 842.321 99.1769 847.034 96.0731L846.158 94.743ZM830.765 99.1269C826.268 99.1269 822.475 98.4684 819.364 97.1807L818.755 98.6523C822.109 100.04 826.12 100.72 830.765 100.72V99.1269ZM819.364 97.1807C816.22 95.88 813.663 94.1569 811.67 92.0218L810.506 93.1085C812.675 95.4329 815.432 97.2773 818.755 98.6523L819.364 97.1807ZM811.675 92.0271C809.692 89.8643 808.184 87.4923 807.144 84.9096L805.667 85.5046C806.782 88.2732 808.395 90.8066 810.501 93.1033L811.675 92.0271ZM807.145 84.9131C806.092 82.2621 805.423 79.6188 805.134 76.9818L803.551 77.1553C803.857 79.944 804.563 82.7264 805.665 85.5011L807.145 84.9131ZM804.343 77.8649H815.046V76.2723H804.343V77.8649ZM814.257 77.1812C814.567 79.3499 815.243 81.5262 816.277 83.7085L817.716 83.0267C816.743 80.9724 816.119 78.9494 815.834 76.956L814.257 77.1812ZM816.284 83.7237C817.396 85.9475 819.117 87.797 821.415 89.2769L822.277 87.9379C820.19 86.5935 818.678 84.9498 817.709 83.0114L816.284 83.7237ZM821.423 89.2821C823.787 90.7647 826.926 91.4662 830.765 91.4662V89.8736C827.098 89.8736 824.29 89.2001 822.269 87.9328L821.423 89.2821ZM830.765 91.4662C834.75 91.4662 838.33 90.3604 841.48 88.1438L840.564 86.8413C837.693 88.8612 834.436 89.8736 830.765 89.8736V91.4662ZM841.48 88.1438C844.661 85.9054 847.12 82.3502 848.903 77.5699L847.411 77.0133C845.701 81.5978 843.403 84.8433 840.564 86.8413L841.48 88.1438ZM848.904 77.568C850.696 72.725 851.573 66.3583 851.573 58.5061H849.981C849.981 66.262 849.111 72.4189 847.41 77.0152L848.904 77.568ZM851.573 58.5061C851.573 58.0705 851.478 57.5951 851.149 57.2245C850.804 56.8362 850.331 56.7064 849.885 56.7064V58.2991C849.961 58.2991 849.993 58.31 849.996 58.3111C849.997 58.3114 849.991 58.3096 849.983 58.3039C849.974 58.2981 849.966 58.2907 849.959 58.2827C849.943 58.2653 849.948 58.2612 849.958 58.2934C849.968 58.3283 849.981 58.3953 849.981 58.5061H851.573ZM849.885 56.7064C849.448 56.7064 849.031 56.8179 848.663 57.0631L849.546 58.3883C849.624 58.3363 849.727 58.2991 849.885 58.2991V56.7064ZM848.748 57.0135C848.481 57.1473 848.272 57.3672 848.114 57.5713C847.946 57.7872 847.782 58.053 847.622 58.3544L849.027 59.1039C849.163 58.8478 849.279 58.6676 849.371 58.5491C849.472 58.4188 849.505 58.4157 849.461 58.438L848.748 57.0135ZM847.615 58.3665C846.01 61.5062 843.635 64.1178 840.472 66.2027L841.349 67.5325C844.726 65.3066 847.294 62.4925 849.033 59.0917L847.615 58.3665ZM840.474 66.2015C837.406 68.2117 833.408 69.2486 828.424 69.2486V70.8413C833.622 70.8413 837.949 69.76 841.347 67.5337L840.474 66.2015ZM828.424 69.2486C823.718 69.2486 819.528 68.1822 815.832 66.0651L815.04 67.4471C818.999 69.7151 823.468 70.8413 828.424 70.8413V69.2486ZM815.84 66.0697C812.173 63.9131 809.261 60.9317 807.098 57.1105L805.712 57.895C808.009 61.9522 811.117 65.1397 815.032 67.4425L815.84 66.0697ZM807.103 57.1182C804.985 53.2775 803.913 48.7872 803.913 43.6227H802.32C802.32 49.0123 803.441 53.7753 805.708 57.8873L807.103 57.1182ZM803.913 43.6227C803.913 38.5397 805.019 34.0102 807.215 30.0147L805.819 29.2477C803.481 33.5022 802.32 38.3004 802.32 43.6227H803.913ZM807.212 30.0195C809.444 26.0229 812.573 22.8752 816.611 20.5676L815.821 19.1847C811.535 21.6339 808.197 24.9895 805.822 29.2429L807.212 30.0195ZM816.611 20.5676C820.632 18.2697 825.415 17.1049 830.988 17.1049V15.5123C825.19 15.5123 820.124 16.7258 815.821 19.1847L816.611 20.5676ZM830.988 17.1049C836.581 17.1049 841.588 18.4108 846.027 21.0093L846.831 19.6349C842.128 16.882 836.841 15.5123 830.988 15.5123V17.1049ZM846.027 21.0093C850.433 23.5887 853.957 27.6519 856.577 33.2573L858.02 32.5828C855.29 26.7423 851.567 22.4068 846.831 19.6349L846.027 21.0093ZM856.578 33.2591C859.187 38.8029 860.516 46.0337 860.516 54.9943H862.109C862.109 45.8942 860.762 38.4087 858.019 32.581L856.578 33.2591ZM849.399 43.2883C849.399 37.8732 847.741 33.4075 844.379 29.9665L843.239 31.0797C846.269 34.1792 847.807 38.2236 847.807 43.2883H849.399ZM844.385 29.9731C841.051 26.4826 836.593 24.7656 831.1 24.7656V26.3583C836.235 26.3583 840.249 27.9487 843.233 31.0731L844.385 29.9731ZM831.1 24.7656C825.641 24.7656 821.186 26.4837 817.817 29.9697L818.963 31.0764C821.986 27.9476 826.004 26.3583 831.1 26.3583V24.7656ZM817.821 29.9665C814.458 33.4075 812.8 37.8732 812.8 43.2883H814.393C814.393 38.2236 815.931 34.1792 818.96 31.0797L817.821 29.9665ZM812.8 43.2883C812.8 48.7035 814.458 53.1857 817.817 56.6625L818.963 55.5558C815.931 52.4178 814.393 48.3528 814.393 43.2883H812.8ZM817.821 56.6658C821.19 60.1132 825.644 61.8109 831.1 61.8109V60.2182C826.001 60.2182 821.982 58.6456 818.96 55.5526L817.821 56.6658ZM831.1 61.8109C836.59 61.8109 841.048 60.1144 844.382 56.6624L843.236 55.5559C840.253 58.6445 836.237 60.2182 831.1 60.2182V61.8109ZM844.382 56.6625C847.741 53.1857 849.399 48.7035 849.399 43.2883H847.807C847.807 48.3528 846.269 52.4178 843.236 55.5558L844.382 56.6625ZM870.925 64.5821L870.334 64.0491L870.334 64.0494L870.925 64.5821ZM882.241 57.8372L882.433 58.6101L882.434 58.6098L882.241 57.8372ZM882.464 55.719L882.693 54.9562L882.688 54.9547L882.464 55.719ZM871.594 49.0855L870.986 49.5996L870.993 49.6074L871.594 49.0855ZM871.26 26.1194L871.895 26.5995L871.895 26.5995L871.26 26.1194ZM881.071 18.817L880.774 18.0781L880.771 18.079L881.071 18.817ZM909.277 18.817L909.574 18.0781L909.574 18.0781L909.277 18.817ZM919.087 26.1194L918.449 26.5948L918.452 26.5995L919.087 26.1194ZM918.697 49.0855L918.093 48.5673L918.092 48.5679L918.697 49.0855ZM907.883 55.719L907.659 54.9547L907.654 54.9562L907.883 55.719ZM908.106 57.8372L907.913 58.6098L907.914 58.6101L908.106 57.8372ZM919.366 64.5821L918.771 65.1116L918.778 65.1185L919.366 64.5821ZM920.258 89.3878L919.613 88.9203L919.61 88.925L920.258 89.3878ZM910.113 97.1919L909.805 96.4573L909.803 96.4583L910.113 97.1919ZM880.179 97.1919L879.869 97.9254L879.871 97.9264L880.179 97.1919ZM870.034 89.3878L869.386 89.8507L869.389 89.8554L870.034 89.3878ZM882.687 48.5839L882.197 49.2116L882.202 49.2153L882.687 48.5839ZM907.66 48.5839L908.145 49.2154L908.15 49.2116L907.66 48.5839ZM907.66 29.1853L907.165 29.8093L907.17 29.813L907.66 29.1853ZM882.687 29.1853L883.177 29.813L883.182 29.8093L882.687 29.1853ZM881.795 86.7122L881.295 87.3319L881.299 87.3347L881.795 86.7122ZM908.496 86.7122L908 86.0896L907.996 86.0924L908.496 86.7122ZM908.496 65.3068L907.996 65.9266L908.004 65.9327L908.496 65.3068ZM881.795 65.3068L882.291 65.93L882.292 65.9293L881.795 65.3068ZM867.207 77.2916C867.207 72.3305 868.657 68.2927 871.517 65.1149L870.334 64.0494C867.173 67.5607 865.614 71.9959 865.614 77.2916H867.207ZM871.517 65.1152C874.456 61.8537 878.088 59.6875 882.433 58.6101L882.05 57.0643C877.402 58.2167 873.49 60.547 870.334 64.0491L871.517 65.1152ZM882.434 58.6098C882.936 58.4844 883.401 58.2975 883.754 58.003C884.135 57.6857 884.375 57.248 884.375 56.7224H882.783C882.783 56.7301 882.782 56.7326 882.782 56.7314C882.782 56.731 882.783 56.7304 882.783 56.7296C882.783 56.7288 882.783 56.7285 882.783 56.7286C882.783 56.7287 882.783 56.7297 882.781 56.7315C882.78 56.7335 882.778 56.7365 882.775 56.7407C882.768 56.749 882.756 56.7623 882.735 56.7795C882.642 56.8566 882.438 56.9671 882.048 57.0647L882.434 58.6098ZM884.375 56.7224C884.375 56.2449 884.164 55.8431 883.833 55.5451C883.525 55.2678 883.121 55.0847 882.693 54.9562L882.235 56.4817C882.55 56.5762 882.704 56.6719 882.768 56.729C882.795 56.7533 882.796 56.7619 882.79 56.7512C882.788 56.7463 882.786 56.7399 882.784 56.7331C882.783 56.7263 882.783 56.7223 882.783 56.7224H884.375ZM882.688 54.9547C878.239 53.6525 874.756 51.5147 872.196 48.5637L870.993 49.6074C873.784 52.8253 877.548 55.1098 882.241 56.4832L882.688 54.9547ZM872.203 48.5715C869.697 45.6071 868.433 42.0036 868.433 37.7139H866.84C866.84 42.3432 868.215 46.3208 870.986 49.5996L872.203 48.5715ZM868.433 37.7139C868.433 33.3296 869.598 29.6393 871.895 26.5995L870.625 25.6392C868.091 28.9914 866.84 33.0308 866.84 37.7139H868.433ZM871.895 26.5995C874.215 23.5307 877.363 21.1795 881.37 19.555L880.771 18.079C876.528 19.7992 873.136 22.3162 870.625 25.6392L871.895 26.5995ZM881.368 19.556C885.421 17.9274 890.019 17.1049 895.174 17.1049V15.5123C889.849 15.5123 885.045 16.3621 880.774 18.0781L881.368 19.556ZM895.174 17.1049C900.329 17.1049 904.927 17.9274 908.98 19.556L909.574 18.0781C905.303 16.3621 900.498 15.5123 895.174 15.5123V17.1049ZM908.98 19.556C913.023 21.1806 916.168 23.5308 918.449 26.5948L919.726 25.644C917.25 22.3161 913.854 19.798 909.574 18.0781L908.98 19.556ZM918.452 26.5995C920.75 29.6393 921.914 33.3296 921.914 37.7139H923.507C923.507 33.0308 922.256 28.9914 919.723 25.6392L918.452 26.5995ZM921.914 37.7139C921.914 42.0007 920.634 45.6027 918.093 48.5673L919.302 49.6038C922.112 46.3252 923.507 42.3461 923.507 37.7139H921.914ZM918.092 48.5679C915.571 51.5157 912.108 53.6526 907.659 54.9547L908.107 56.4832C912.8 55.1097 916.547 52.8243 919.302 49.6032L918.092 48.5679ZM907.654 54.9562C907.226 55.0847 906.822 55.2678 906.514 55.5451C906.183 55.8431 905.972 56.2449 905.972 56.7224H907.565C907.565 56.7223 907.565 56.7263 907.563 56.7331C907.562 56.7399 907.559 56.7463 907.557 56.7512C907.552 56.7619 907.553 56.7533 907.58 56.729C907.643 56.6719 907.797 56.5762 908.112 56.4817L907.654 54.9562ZM905.972 56.7224C905.972 57.248 906.212 57.6857 906.593 58.003C906.946 58.2975 907.411 58.4844 907.913 58.6098L908.299 57.0647C907.909 56.9671 907.705 56.8566 907.613 56.7795C907.592 56.7623 907.58 56.749 907.573 56.7407C907.569 56.7365 907.567 56.7335 907.566 56.7315C907.565 56.7297 907.564 56.7287 907.564 56.7286C907.564 56.7285 907.564 56.7288 907.565 56.7296C907.565 56.7304 907.565 56.731 907.565 56.7314C907.565 56.7326 907.565 56.7301 907.565 56.7224H905.972ZM907.914 58.6101C912.259 59.6873 915.871 61.8527 918.771 65.1116L919.961 64.0527C916.842 60.548 912.946 58.2168 908.298 57.0643L907.914 58.6101ZM918.778 65.1185C921.673 68.2966 923.141 72.3332 923.141 77.2916H924.733C924.733 71.9932 923.154 67.5568 919.955 64.0458L918.778 65.1185ZM923.141 77.2916C923.141 81.8273 921.956 85.6907 919.613 88.9203L920.903 89.8554C923.466 86.3214 924.733 82.1207 924.733 77.2916H923.141ZM919.61 88.925C917.292 92.1707 914.035 94.6857 909.805 96.4573L910.42 97.9264C914.886 96.0561 918.393 93.3684 920.906 89.8507L919.61 88.925ZM909.803 96.4583C905.608 98.2302 900.737 99.1269 895.174 99.1269V100.72C900.907 100.72 905.996 99.7954 910.423 97.9254L909.803 96.4583ZM895.174 99.1269C889.61 99.1269 884.72 98.2302 880.486 96.4573L879.871 97.9264C884.334 99.7954 889.44 100.72 895.174 100.72V99.1269ZM880.489 96.4583C876.295 94.6869 873.036 92.1708 870.678 88.9203L869.389 89.8554C871.937 93.3683 875.441 96.055 879.869 97.9254L880.489 96.4583ZM870.682 88.925C868.374 85.6951 867.207 81.8299 867.207 77.2916H865.614C865.614 82.118 866.862 86.3171 869.386 89.8507L870.682 88.925ZM877.32 39.1075C877.32 43.2865 878.952 46.679 882.197 49.2116L883.177 47.9561C880.328 45.732 878.913 42.8069 878.913 39.1075H877.32ZM882.202 49.2153C885.432 51.697 889.786 52.892 895.174 52.892V51.2993C890.008 51.2993 886.037 50.1531 883.172 47.9524L882.202 49.2153ZM895.174 52.892C900.562 52.892 904.915 51.697 908.145 49.2153L907.175 47.9524C904.311 50.1531 900.34 51.2993 895.174 51.2993V52.892ZM908.15 49.2116C911.395 46.679 913.027 43.2865 913.027 39.1075H911.435C911.435 42.8069 910.02 45.732 907.17 47.9561L908.15 49.2116ZM913.027 39.1075C913.027 34.6528 911.411 31.1026 908.15 28.5575L907.17 29.813C910.004 32.0246 911.435 35.0893 911.435 39.1075H913.027ZM908.155 28.5612C904.924 26.0001 900.567 24.7656 895.174 24.7656V26.3583C900.335 26.3583 904.302 27.5393 907.165 29.8093L908.155 28.5612ZM895.174 24.7656C889.781 24.7656 885.424 26.0001 882.193 28.5612L883.182 29.8093C886.046 27.5393 890.013 26.3583 895.174 26.3583V24.7656ZM882.197 28.5575C878.936 31.1026 877.32 34.6528 877.32 39.1075H878.913C878.913 35.0893 880.344 32.0246 883.177 29.813L882.197 28.5575ZM876.094 76.0095C876.094 80.7275 877.823 84.5305 881.295 87.3319L882.295 86.0924C879.227 83.6168 877.686 80.2847 877.686 76.0095H876.094ZM881.299 87.3347C884.787 90.1177 889.441 91.4662 895.174 91.4662V89.8736C889.684 89.8736 885.418 88.5836 882.292 86.0896L881.299 87.3347ZM895.174 91.4662C900.906 91.4662 905.543 90.1179 908.996 87.3319L907.996 86.0924C904.909 88.5834 900.664 89.8736 895.174 89.8736V91.4662ZM908.993 87.3347C912.503 84.5344 914.254 80.7308 914.254 76.0095H912.661C912.661 80.2813 911.104 83.6128 908 86.0896L908.993 87.3347ZM914.254 76.0095C914.254 71.2532 912.504 67.4462 908.989 64.6809L908.004 65.9327C911.103 68.3701 912.661 71.6982 912.661 76.0095H914.254ZM908.996 64.687C905.543 61.901 900.906 60.5527 895.174 60.5527V62.1454C900.664 62.1454 904.909 63.4355 907.996 65.9266L908.996 64.687ZM895.174 60.5527C889.441 60.5527 884.787 61.9013 881.299 64.6843L882.292 65.9293C885.418 63.4353 889.684 62.1454 895.174 62.1454V60.5527ZM881.3 64.6836C877.822 67.4501 876.094 71.2567 876.094 76.0095H877.686C877.686 71.6947 879.229 68.3661 882.291 65.93L881.3 64.6836Z" fill="white"/>
<path d="M569.33 239.151H568.533V239.948H569.33V239.151ZM569.33 237.24L568.625 236.869L568.533 237.043V237.24H569.33ZM577.882 220.995V220.199H577.401L577.178 220.624L577.882 220.995ZM595.895 220.995H596.691V220.199H595.895V220.995ZM595.895 289.798V290.594H596.691V289.798H595.895ZM587.008 289.798H586.212V290.594H587.008V289.798ZM585.001 225.868L584.289 225.512L584.286 225.519L585.001 225.868ZM578.503 239.151V239.948H579L579.219 239.501L578.503 239.151ZM570.126 239.151V237.24H568.533V239.151H570.126ZM570.034 237.611L578.587 221.366L577.178 220.624L568.625 236.869L570.034 237.611ZM577.882 221.791H595.895V220.199H577.882V221.791ZM595.099 220.995V289.798H596.691V220.995H595.099ZM595.895 289.002H587.008V290.594H595.895V289.002ZM587.804 289.798V225.486H586.212V289.798H587.804ZM587.804 225.486C587.804 225.14 587.717 224.735 587.404 224.421C587.09 224.108 586.685 224.021 586.339 224.021V225.614C586.387 225.614 586.396 225.62 586.38 225.615C586.36 225.608 586.319 225.589 586.278 225.548C586.236 225.506 586.217 225.465 586.211 225.445C586.206 225.43 586.212 225.439 586.212 225.486H587.804ZM586.339 224.021C585.369 224.021 584.706 224.678 584.289 225.512L585.714 226.225C585.997 225.657 586.227 225.614 586.339 225.614V224.021ZM584.286 225.519L577.788 238.801L579.219 239.501L585.717 226.218L584.286 225.519ZM578.503 238.355H569.33V239.948H578.503V238.355ZM606.98 234.612L606.25 234.294L606.25 234.294L606.98 234.612ZM616.44 223.145L616.036 222.459L616.033 222.461L616.44 223.145ZM643.962 223.145L644.369 222.461L644.369 222.461L643.962 223.145ZM653.422 234.612L654.152 234.294L654.152 234.294L653.422 234.612ZM653.422 276.181L652.692 275.862L652.692 275.862L653.422 276.181ZM643.962 287.648L644.369 288.332L644.369 288.332L643.962 287.648ZM616.44 287.648L616.033 288.332L616.036 288.333L616.44 287.648ZM606.98 276.181L607.71 275.862L607.71 275.862L606.98 276.181ZM614.72 272.167L613.972 272.438L613.974 272.443L614.72 272.167ZM620.932 280.72L620.509 281.395L620.513 281.397L620.932 280.72ZM639.423 280.72L639.003 280.043L639 280.045L639.423 280.72ZM645.634 272.167L644.887 271.891L644.885 271.896L645.634 272.167ZM645.634 238.626L644.885 238.897L644.888 238.904L645.634 238.626ZM639.423 230.073L639 230.748L639.003 230.75L639.423 230.073ZM620.932 230.073L620.513 229.396L620.509 229.398L620.932 230.073ZM614.72 238.626L613.974 238.349L613.972 238.353L614.72 238.626ZM604.336 255.396C604.336 246.856 605.477 240.049 607.71 234.931L606.25 234.294C603.897 239.687 602.744 246.736 602.744 255.396H604.336ZM607.71 234.931C609.952 229.792 613.007 226.115 616.848 223.829L616.033 222.461C611.847 224.953 608.595 228.921 606.25 234.294L607.71 234.931ZM616.845 223.831C620.757 221.521 625.202 220.358 630.201 220.358V218.765C624.944 218.765 620.215 219.991 616.036 222.459L616.845 223.831ZM630.201 220.358C635.233 220.358 639.677 221.521 643.554 223.829L644.369 222.461C640.22 219.991 635.489 218.765 630.201 218.765V220.358ZM643.554 223.829C647.395 226.115 650.45 229.792 652.692 234.931L654.152 234.294C651.807 228.921 648.555 224.953 644.369 222.461L643.554 223.829ZM652.692 234.931C654.926 240.049 656.066 246.856 656.066 255.396H657.659C657.659 246.736 656.505 239.687 654.152 234.294L652.692 234.931ZM656.066 255.396C656.066 263.937 654.926 270.744 652.692 275.862L654.152 276.499C656.505 271.106 657.659 264.057 657.659 255.396H656.066ZM652.692 275.862C650.45 281.001 647.395 284.677 643.554 286.963L644.369 288.332C648.555 285.84 651.807 281.872 654.152 276.499L652.692 275.862ZM643.554 286.963C639.677 289.272 635.233 290.435 630.201 290.435V292.028C635.489 292.028 640.22 290.802 644.369 288.332L643.554 286.963ZM630.201 290.435C625.202 290.435 620.757 289.272 616.845 286.962L616.036 288.333C620.215 290.801 624.944 292.028 630.201 292.028V290.435ZM616.848 286.963C613.007 284.677 609.952 281.001 607.71 275.862L606.25 276.499C608.595 281.872 611.847 285.84 616.033 288.332L616.848 286.963ZM607.71 275.862C605.477 270.744 604.336 263.937 604.336 255.396H602.744C602.744 264.057 603.897 271.106 606.25 276.499L607.71 275.862ZM611.726 255.396C611.726 262.571 612.461 268.267 613.972 272.438L615.469 271.896C614.049 267.976 613.319 262.492 613.319 255.396H611.726ZM613.974 272.443C615.509 276.592 617.668 279.615 620.509 281.395L621.355 280.045C618.908 278.512 616.926 275.833 615.467 271.891L613.974 272.443ZM620.513 281.397C623.328 283.14 626.566 284.001 630.201 284.001V282.408C626.828 282.408 623.887 281.612 621.351 280.043L620.513 281.397ZM630.201 284.001C633.836 284.001 637.06 283.14 639.845 281.395L639 280.045C636.498 281.612 633.574 282.408 630.201 282.408V284.001ZM639.842 281.397C642.717 279.617 644.879 276.591 646.383 272.438L644.885 271.896C643.459 275.834 641.479 278.51 639.003 280.043L639.842 281.397ZM646.381 272.443C647.925 268.271 648.676 262.572 648.676 255.396H647.083C647.083 262.491 646.337 267.973 644.887 271.891L646.381 272.443ZM648.676 255.396C648.676 248.19 647.925 242.49 646.38 238.347L644.888 238.904C646.337 242.788 647.083 248.269 647.083 255.396H648.676ZM646.383 238.354C644.879 234.202 642.717 231.176 639.842 229.396L639.003 230.75C641.479 232.283 643.459 234.959 644.885 238.897L646.383 238.354ZM639.845 229.398C637.06 227.653 633.836 226.792 630.201 226.792V228.385C633.574 228.385 636.498 229.18 639 230.748L639.845 229.398ZM630.201 226.792C626.566 226.792 623.328 227.653 620.513 229.396L621.351 230.75C623.887 229.18 626.828 228.385 630.201 228.385V226.792ZM620.509 229.398C617.668 231.178 615.509 234.201 613.974 238.349L615.467 238.902C616.926 234.96 618.908 232.281 621.355 230.748L620.509 229.398ZM613.972 238.353C612.461 242.493 611.726 248.191 611.726 255.396H613.319C613.319 248.268 614.05 242.785 615.468 238.899L613.972 238.353ZM664.096 234.612L663.366 234.294L663.366 234.294L664.096 234.612ZM673.556 223.145L673.151 222.459L673.149 222.461L673.556 223.145ZM701.077 223.145L701.485 222.461L701.485 222.461L701.077 223.145ZM710.538 234.612L711.267 234.294L711.267 234.294L710.538 234.612ZM710.538 276.181L709.808 275.862L709.808 275.862L710.538 276.181ZM701.077 287.648L701.485 288.332L701.485 288.332L701.077 287.648ZM673.556 287.648L673.149 288.332L673.151 288.333L673.556 287.648ZM664.096 276.181L664.825 275.862L664.825 275.862L664.096 276.181ZM671.836 272.167L671.087 272.438L671.089 272.443L671.836 272.167ZM678.047 280.72L677.625 281.395L677.628 281.397L678.047 280.72ZM696.538 280.72L696.119 280.043L696.115 280.045L696.538 280.72ZM702.749 272.167L702.003 271.891L702.001 271.896L702.749 272.167ZM702.749 238.626L702.001 238.897L702.003 238.904L702.749 238.626ZM696.538 230.073L696.115 230.748L696.119 230.75L696.538 230.073ZM678.047 230.073L677.628 229.396L677.625 229.398L678.047 230.073ZM671.836 238.626L671.089 238.349L671.088 238.353L671.836 238.626ZM661.452 255.396C661.452 246.856 662.592 240.049 664.825 234.931L663.366 234.294C661.012 239.687 659.859 246.736 659.859 255.396H661.452ZM664.825 234.931C667.068 229.792 670.123 226.115 673.963 223.829L673.149 222.461C668.962 224.953 665.71 228.921 663.366 234.294L664.825 234.931ZM673.961 223.831C677.873 221.521 682.317 220.358 687.317 220.358V218.765C682.059 218.765 677.33 219.991 673.151 222.459L673.961 223.831ZM687.317 220.358C692.349 220.358 696.792 221.521 700.67 223.829L701.485 222.461C697.335 219.991 692.605 218.765 687.317 218.765V220.358ZM700.67 223.829C704.51 226.115 707.566 229.792 709.808 234.931L711.267 234.294C708.923 228.921 705.671 224.953 701.485 222.461L700.67 223.829ZM709.808 234.931C712.041 240.049 713.181 246.856 713.181 255.396H714.774C714.774 246.736 713.621 239.687 711.267 234.294L709.808 234.931ZM713.181 255.396C713.181 263.937 712.041 270.744 709.808 275.862L711.267 276.499C713.621 271.106 714.774 264.057 714.774 255.396H713.181ZM709.808 275.862C707.566 281.001 704.51 284.677 700.67 286.963L701.485 288.332C705.671 285.84 708.923 281.872 711.267 276.499L709.808 275.862ZM700.67 286.963C696.792 289.272 692.349 290.435 687.317 290.435V292.028C692.605 292.028 697.335 290.802 701.485 288.332L700.67 286.963ZM687.317 290.435C682.317 290.435 677.873 289.272 673.961 286.962L673.151 288.333C677.33 290.801 682.059 292.028 687.317 292.028V290.435ZM673.963 286.963C670.123 284.677 667.068 281.001 664.825 275.862L663.366 276.499C665.71 281.872 668.962 285.84 673.149 288.332L673.963 286.963ZM664.825 275.862C662.592 270.744 661.452 263.937 661.452 255.396H659.859C659.859 264.057 661.012 271.106 663.366 276.499L664.825 275.862ZM668.842 255.396C668.842 262.571 669.577 268.267 671.087 272.438L672.585 271.896C671.165 267.976 670.434 262.492 670.434 255.396H668.842ZM671.089 272.443C672.624 276.592 674.784 279.615 677.625 281.395L678.47 280.045C676.023 278.512 674.042 275.833 672.583 271.891L671.089 272.443ZM677.628 281.397C680.444 283.14 683.682 284.001 687.317 284.001V282.408C683.944 282.408 681.002 281.612 678.466 280.043L677.628 281.397ZM687.317 284.001C690.951 284.001 694.175 283.14 696.961 281.395L696.115 280.045C693.613 281.612 690.69 282.408 687.317 282.408V284.001ZM696.957 281.397C699.833 279.617 701.994 276.591 703.498 272.438L702.001 271.896C700.574 275.834 698.595 278.51 696.119 280.043L696.957 281.397ZM703.496 272.443C705.041 268.271 705.791 262.572 705.791 255.396H704.199C704.199 262.491 703.453 267.973 702.003 271.891L703.496 272.443ZM705.791 255.396C705.791 248.19 705.041 242.49 703.496 238.347L702.003 238.904C703.452 242.788 704.199 248.269 704.199 255.396H705.791ZM703.498 238.354C701.994 234.202 699.833 231.176 696.957 229.396L696.119 230.75C698.595 232.283 700.574 234.959 702.001 238.897L703.498 238.354ZM696.961 229.398C694.175 227.653 690.951 226.792 687.317 226.792V228.385C690.69 228.385 693.613 229.18 696.115 230.748L696.961 229.398ZM687.317 226.792C683.682 226.792 680.444 227.653 677.628 229.396L678.466 230.75C681.002 229.18 683.944 228.385 687.317 228.385V226.792ZM677.625 229.398C674.784 231.178 672.624 234.201 671.089 238.349L672.583 238.902C674.042 234.96 676.023 232.281 678.47 230.748L677.625 229.398ZM671.088 238.353C669.576 242.493 668.842 248.191 668.842 255.396H670.434C670.434 248.268 671.165 242.785 672.584 238.899L671.088 238.353Z" fill="white"/>
<path d="M1192.03 -39.6958H992.943V358.469H1192.03V-39.6958Z" stroke="#FFD600" stroke-width="0.79633" stroke-miterlimit="10"/>
<path d="M992.943 159.387L1192.03 159.387" stroke="#FFD600" stroke-width="0.793489" stroke-miterlimit="10"/>
<path d="M1092.48 358.469C1147.46 358.469 1192.03 313.903 1192.03 258.928C1192.03 203.953 1147.46 159.387 1092.48 159.387C1037.51 159.387 992.943 203.953 992.943 258.928C992.943 313.903 1037.51 358.469 1092.48 358.469Z" stroke="white" stroke-width="0.790617" stroke-miterlimit="10"/>
<path d="M769.974 358.469L969.057 358.469L969.057 -39.6957L769.974 -39.6957L769.974 358.469Z" stroke="#FF364E" stroke-width="0.79633" stroke-miterlimit="10"/>
<path d="M969.057 159.387L769.974 159.387" stroke="#FF364E" stroke-width="0.793489" stroke-miterlimit="10"/>
<path d="M869.515 -39.6959C814.54 -39.6959 769.974 4.87025 769.974 59.8454C769.974 114.821 814.54 159.387 869.515 159.387C924.491 159.387 969.057 114.821 969.057 59.8454C969.057 4.87027 924.491 -39.6959 869.515 -39.6959Z" stroke="white" stroke-width="0.790617" stroke-miterlimit="10"/>
<path d="M746.083 -39.6951H547V358.47H746.083V-39.6951Z" stroke="#4C57C5" stroke-width="0.79633" stroke-miterlimit="10"/>
<path d="M547 159.387L746.083 159.387" stroke="#4C57C5" stroke-width="0.793489" stroke-miterlimit="10"/>
<path d="M646.541 358.469C701.516 358.469 746.083 313.903 746.083 258.928C746.083 203.953 701.516 159.387 646.541 159.387C591.566 159.387 547 203.953 547 258.928C547 313.903 591.566 358.469 646.541 358.469Z" stroke="white" stroke-width="0.790617" stroke-miterlimit="10"/>
<path d="M869.514 239.425L893.394 159.387L877.809 241.452L935.875 181.929L884.345 247.277L963.274 221.695L887.361 255.382L969.055 269.566L886.356 263.994L951.962 314.904L881.328 271.086L916.017 346.818L873.787 275.139L869.514 358.47L865.241 275.139L823.011 346.818L857.7 271.086L787.066 314.904L852.672 263.994L769.973 269.566L851.667 255.382L775.754 221.695L854.683 247.277L803.153 181.929L861.219 241.452L845.634 159.387L869.514 239.425Z" stroke="#FF364E" stroke-width="0.79633" stroke-miterlimit="10"/>
<line x1="992.943" y1="17.242" x2="1192.03" y2="17.242" stroke="#FFD600" stroke-width="0.79633"/>
<line x1="547" y1="17.242" x2="746.083" y2="17.242" stroke="#4C57C5" stroke-width="0.79633"/>
<line x1="992.943" y1="45.9097" x2="1192.03" y2="45.9097" stroke="#FFD600" stroke-width="0.79633"/>
<line x1="547" y1="45.9097" x2="746.083" y2="45.9097" stroke="#4C57C5" stroke-width="0.79633"/>
<line x1="992.943" y1="73.7813" x2="1192.03" y2="73.7813" stroke="#FFD600" stroke-width="0.79633"/>
<line x1="547" y1="73.7813" x2="746.083" y2="73.7813" stroke="#4C57C5" stroke-width="0.79633"/>
<line x1="992.943" y1="102.449" x2="1192.03" y2="102.449" stroke="#FFD600" stroke-width="0.79633"/>
<line x1="547" y1="102.449" x2="746.083" y2="102.449" stroke="#4C57C5" stroke-width="0.79633"/>
<line x1="992.943" y1="130.321" x2="1192.03" y2="130.321" stroke="#FFD600" stroke-width="0.79633"/>
<line x1="547" y1="130.321" x2="746.083" y2="130.321" stroke="#4C57C5" stroke-width="0.79633"/>
<path d="M781.604 444.355H780.808V445.151H781.604V444.355ZM781.604 442.125L780.9 441.754L780.808 441.929V442.125H781.604ZM791.582 423.173V422.376H791.102L790.878 422.802L791.582 423.173ZM812.597 423.173H813.394V422.376H812.597V423.173ZM812.597 503.443V504.239H813.394V503.443H812.597ZM802.229 503.443H801.433V504.239H802.229V503.443ZM799.888 428.859L799.176 428.502L799.173 428.509L799.888 428.859ZM792.307 444.355V445.151H792.804L793.022 444.705L792.307 444.355ZM782.401 444.355V442.125H780.808V444.355H782.401ZM782.309 442.496L792.287 423.544L790.878 422.802L780.9 441.754L782.309 442.496ZM791.582 423.969H812.597V422.376H791.582V423.969ZM811.801 423.173V503.443H813.394V423.173H811.801ZM812.597 502.647H802.229V504.239H812.597V502.647ZM803.026 503.443V428.413H801.433V503.443H803.026ZM803.026 428.413C803.026 428.03 802.929 427.596 802.597 427.264C802.265 426.932 801.832 426.836 801.449 426.836V428.429C801.481 428.429 801.504 428.431 801.519 428.433C801.534 428.435 801.54 428.437 801.538 428.436C801.537 428.436 801.528 428.433 801.515 428.425C801.501 428.417 801.486 428.405 801.471 428.39C801.456 428.376 801.445 428.36 801.437 428.347C801.429 428.334 801.426 428.325 801.425 428.323C801.424 428.322 801.427 428.327 801.429 428.342C801.431 428.357 801.433 428.38 801.433 428.413H803.026ZM801.449 426.836C800.388 426.836 799.651 427.552 799.176 428.502L800.6 429.215C800.942 428.53 801.246 428.429 801.449 428.429V426.836ZM799.173 428.509L791.592 444.005L793.022 444.705L800.603 429.209L799.173 428.509ZM792.307 443.559H781.604V445.151H792.307V443.559ZM825.53 439.06L824.8 438.741L824.8 438.741L825.53 439.06ZM836.567 425.681L836.162 424.996L836.16 424.997L836.567 425.681ZM868.675 425.681L869.082 424.997L869.082 424.997L868.675 425.681ZM879.712 439.06L880.442 438.741L880.442 438.741L879.712 439.06ZM879.712 487.556L878.982 487.238L878.982 487.238L879.712 487.556ZM868.675 500.934L869.082 501.619L869.082 501.619L868.675 500.934ZM836.567 500.934L836.16 501.619L836.162 501.62L836.567 500.934ZM825.53 487.556L826.26 487.238L826.26 487.238L825.53 487.556ZM834.56 482.874L833.811 483.145L833.813 483.15L834.56 482.874ZM841.807 492.852L841.384 493.527L841.388 493.529L841.807 492.852ZM863.379 492.852L862.96 492.175L862.957 492.177L863.379 492.852ZM870.626 482.874L869.879 482.597L869.877 482.602L870.626 482.874ZM870.626 443.742L869.877 444.013L869.88 444.02L870.626 443.742ZM863.379 433.764L862.957 434.439L862.96 434.441L863.379 433.764ZM841.807 433.764L841.388 433.087L841.384 433.089L841.807 433.764ZM834.56 443.742L833.813 443.466L833.812 443.469L834.56 443.742ZM822.313 463.308C822.313 453.334 823.644 445.372 826.26 439.378L824.8 438.741C822.064 445.011 820.72 453.214 820.72 463.308H822.313ZM826.26 439.378C828.884 433.364 832.465 429.05 836.974 426.366L836.16 424.997C831.304 427.887 827.527 432.492 824.8 438.741L826.26 439.378ZM836.972 426.367C841.558 423.659 846.767 422.297 852.621 422.297V420.704C846.509 420.704 841.015 422.129 836.162 424.996L836.972 426.367ZM852.621 422.297C858.513 422.297 863.721 423.659 868.268 426.366L869.082 424.997C864.264 422.129 858.769 420.704 852.621 420.704V422.297ZM868.268 426.366C872.777 429.05 876.358 433.364 878.982 439.378L880.442 438.741C877.715 432.492 873.938 427.887 869.082 424.997L868.268 426.366ZM878.982 439.378C881.598 445.372 882.929 453.334 882.929 463.308H884.522C884.522 453.214 883.178 445.011 880.442 438.741L878.982 439.378ZM882.929 463.308C882.929 473.282 881.598 481.244 878.982 487.238L880.442 487.875C883.178 481.605 884.522 473.401 884.522 463.308H882.929ZM878.982 487.238C876.358 493.252 872.777 497.566 868.268 500.25L869.082 501.619C873.938 498.729 877.715 494.124 880.442 487.875L878.982 487.238ZM868.268 500.25C863.721 502.956 858.513 504.319 852.621 504.319V505.911C858.769 505.911 864.264 504.487 869.082 501.619L868.268 500.25ZM852.621 504.319C846.767 504.319 841.558 502.957 836.972 500.249L836.162 501.62C841.015 504.486 846.509 505.911 852.621 505.911V504.319ZM836.974 500.25C832.465 497.566 828.884 493.252 826.26 487.238L824.8 487.875C827.527 494.124 831.304 498.729 836.16 501.619L836.974 500.25ZM826.26 487.238C823.644 481.244 822.313 473.282 822.313 463.308H820.72C820.72 473.401 822.064 481.605 824.8 487.875L826.26 487.238ZM831.2 463.308C831.2 471.672 832.057 478.3 833.811 483.145L835.309 482.602C833.645 478.008 832.792 471.592 832.792 463.308H831.2ZM833.813 483.15C835.598 487.973 838.103 491.471 841.384 493.527L842.23 492.177C839.342 490.368 837.016 487.214 835.307 482.597L833.813 483.15ZM841.388 493.529C844.649 495.548 848.402 496.547 852.621 496.547V494.954C848.664 494.954 845.208 494.02 842.226 492.175L841.388 493.529ZM852.621 496.547C856.839 496.547 860.576 495.548 863.802 493.527L862.957 492.177C860.014 494.02 856.578 494.954 852.621 494.954V496.547ZM863.799 493.529C867.12 491.473 869.626 487.972 871.375 483.145L869.877 482.602C868.207 487.215 865.882 490.366 862.96 492.175L863.799 493.529ZM871.373 483.15C873.167 478.303 874.042 471.673 874.042 463.308H872.45C872.45 471.591 871.579 478.005 869.879 482.597L871.373 483.15ZM874.042 463.308C874.042 454.906 873.167 448.275 871.372 443.464L869.88 444.02C871.578 448.574 872.45 454.986 872.45 463.308H874.042ZM871.375 443.471C869.626 438.644 867.12 435.143 863.799 433.087L862.96 434.441C865.882 436.25 868.207 439.401 869.877 444.013L871.375 443.471ZM863.802 433.089C860.576 431.068 856.839 430.069 852.621 430.069V431.662C856.578 431.662 860.014 432.595 862.957 434.439L863.802 433.089ZM852.621 430.069C848.402 430.069 844.649 431.068 841.388 433.087L842.226 434.441C845.208 432.595 848.664 431.662 852.621 431.662V430.069ZM841.384 433.089C838.103 435.145 835.598 438.643 833.813 443.466L835.307 444.018C837.016 439.402 839.342 436.248 842.23 434.439L841.384 433.089ZM833.812 443.469C832.056 448.278 831.2 454.907 831.2 463.308H832.792C832.792 454.985 833.645 448.57 835.308 444.015L833.812 443.469ZM892.165 439.06L891.435 438.741L891.435 438.741L892.165 439.06ZM903.202 425.681L902.797 424.996L902.794 424.997L903.202 425.681ZM935.31 425.681L935.717 424.997L935.717 424.997L935.31 425.681ZM946.347 439.06L947.077 438.741L947.077 438.741L946.347 439.06ZM946.347 487.556L945.617 487.238L945.617 487.238L946.347 487.556ZM935.31 500.934L935.717 501.619L935.717 501.619L935.31 500.934ZM903.202 500.934L902.794 501.619L902.797 501.62L903.202 500.934ZM892.165 487.556L892.894 487.238L892.894 487.238L892.165 487.556ZM901.195 482.874L900.446 483.145L900.448 483.15L901.195 482.874ZM908.442 492.852L908.019 493.527L908.022 493.529L908.442 492.852ZM930.014 492.852L929.595 492.175L929.591 492.177L930.014 492.852ZM937.261 482.874L936.514 482.597L936.512 482.602L937.261 482.874ZM937.261 443.742L936.512 444.013L936.515 444.02L937.261 443.742ZM930.014 433.764L929.591 434.439L929.595 434.441L930.014 433.764ZM908.442 433.764L908.022 433.087L908.019 433.089L908.442 433.764ZM901.195 443.742L900.448 443.466L900.447 443.469L901.195 443.742ZM888.947 463.308C888.947 453.334 890.279 445.372 892.894 439.378L891.435 438.741C888.699 445.011 887.355 453.214 887.355 463.308H888.947ZM892.894 439.378C895.519 433.364 899.1 429.05 903.609 426.366L902.794 424.997C897.939 427.887 894.162 432.492 891.435 438.741L892.894 439.378ZM903.607 426.367C908.193 423.659 913.402 422.297 919.256 422.297V420.704C913.144 420.704 907.65 422.129 902.797 424.996L903.607 426.367ZM919.256 422.297C925.148 422.297 930.356 423.659 934.902 426.366L935.717 424.997C930.899 422.129 925.404 420.704 919.256 420.704V422.297ZM934.902 426.366C939.412 429.05 942.993 433.364 945.617 439.378L947.077 438.741C944.35 432.492 940.573 427.887 935.717 424.997L934.902 426.366ZM945.617 439.378C948.233 445.372 949.564 453.334 949.564 463.308H951.157C951.157 453.214 949.813 445.011 947.077 438.741L945.617 439.378ZM949.564 463.308C949.564 473.282 948.233 481.244 945.617 487.238L947.077 487.875C949.813 481.605 951.157 473.401 951.157 463.308H949.564ZM945.617 487.238C942.993 493.252 939.412 497.566 934.902 500.25L935.717 501.619C940.573 498.729 944.35 494.124 947.077 487.875L945.617 487.238ZM934.902 500.25C930.356 502.956 925.148 504.319 919.256 504.319V505.911C925.404 505.911 930.899 504.487 935.717 501.619L934.902 500.25ZM919.256 504.319C913.402 504.319 908.193 502.957 903.607 500.249L902.797 501.62C907.65 504.486 913.144 505.911 919.256 505.911V504.319ZM903.609 500.25C899.1 497.566 895.519 493.252 892.894 487.238L891.435 487.875C894.162 494.124 897.939 498.729 902.794 501.619L903.609 500.25ZM892.894 487.238C890.279 481.244 888.947 473.282 888.947 463.308H887.355C887.355 473.401 888.699 481.605 891.435 487.875L892.894 487.238ZM897.834 463.308C897.834 471.672 898.691 478.3 900.446 483.145L901.944 482.602C900.28 478.008 899.427 471.592 899.427 463.308H897.834ZM900.448 483.15C902.233 487.973 904.738 491.471 908.019 493.527L908.864 492.177C905.977 490.368 903.65 487.214 901.942 482.597L900.448 483.15ZM908.022 493.529C911.284 495.548 915.037 496.547 919.256 496.547V494.954C915.299 494.954 911.843 494.02 908.861 492.175L908.022 493.529ZM919.256 496.547C923.474 496.547 927.211 495.548 930.437 493.527L929.591 492.177C926.649 494.02 923.213 494.954 919.256 494.954V496.547ZM930.433 493.529C933.755 491.473 936.261 487.972 938.01 483.145L936.512 482.602C934.841 487.215 932.517 490.366 929.595 492.175L930.433 493.529ZM938.008 483.15C939.801 478.303 940.677 471.673 940.677 463.308H939.084C939.084 471.591 938.213 478.005 936.514 482.597L938.008 483.15ZM940.677 463.308C940.677 454.906 939.802 448.275 938.007 443.464L936.515 444.02C938.213 448.574 939.084 454.986 939.084 463.308H940.677ZM938.01 443.471C936.261 438.644 933.755 435.143 930.433 433.087L929.595 434.441C932.517 436.25 934.841 439.401 936.512 444.013L938.01 443.471ZM930.437 433.089C927.211 431.068 923.474 430.069 919.256 430.069V431.662C923.213 431.662 926.649 432.595 929.591 434.439L930.437 433.089ZM919.256 430.069C915.037 430.069 911.284 431.068 908.022 433.087L908.861 434.441C911.843 432.595 915.299 431.662 919.256 431.662V430.069ZM908.019 433.089C904.738 435.145 902.233 438.643 900.448 443.466L901.942 444.018C903.65 439.402 905.977 436.248 908.864 434.439L908.019 433.089ZM900.447 443.469C898.691 448.278 897.834 454.907 897.834 463.308H899.427C899.427 454.985 900.28 448.57 901.943 444.015L900.447 443.469Z" fill="white"/>
<path d="M1192.03 358.137H992.943V756.303H1192.03V358.137Z" stroke="#FFD600" stroke-width="0.79633" stroke-miterlimit="10"/>
<path d="M769.974 756.303L969.057 756.303L969.057 358.138L769.974 358.138L769.974 756.303Z" stroke="#FF364E" stroke-width="0.79633" stroke-miterlimit="10"/>
<path d="M869.515 358.138C814.54 358.138 769.974 402.704 769.974 457.679C769.974 512.654 814.54 557.22 869.515 557.22C924.491 557.22 969.057 512.654 969.057 457.679C969.057 402.704 924.491 358.138 869.515 358.138Z" stroke="white" stroke-width="0.790617" stroke-miterlimit="10"/>
<path d="M746.083 358.138H547V756.303H746.083V358.138Z" stroke="#4C57C5" stroke-width="0.79633" stroke-miterlimit="10"/>
<line x1="992.943" y1="387.203" x2="1192.03" y2="387.203" stroke="#FFD600" stroke-width="0.79633"/>
<line x1="547" y1="387.203" x2="746.083" y2="387.203" stroke="#4C57C5" stroke-width="0.79633"/>
<line x1="992.943" y1="415.075" x2="1192.03" y2="415.075" stroke="#FFD600" stroke-width="0.79633"/>
<line x1="547" y1="415.075" x2="746.083" y2="415.075" stroke="#4C57C5" stroke-width="0.79633"/>
<line x1="992.943" y1="443.743" x2="1192.03" y2="443.743" stroke="#FFD600" stroke-width="0.79633"/>
<line x1="547" y1="443.743" x2="746.083" y2="443.743" stroke="#4C57C5" stroke-width="0.79633"/>
<line x1="992.943" y1="471.615" x2="1192.03" y2="471.615" stroke="#FFD600" stroke-width="0.79633"/>
<line x1="547" y1="471.615" x2="746.083" y2="471.615" stroke="#4C57C5" stroke-width="0.79633"/>
<line x1="992.943" y1="500.282" x2="1192.03" y2="500.283" stroke="#FFD600" stroke-width="0.79633"/>
<line x1="547" y1="500.282" x2="746.083" y2="500.283" stroke="#4C57C5" stroke-width="0.79633"/>
</g>
<defs>
<clipPath id="clip0_2741:6486">
<rect width="1028" height="512" fill="white"/>
</clipPath>
</defs>
</svg>
