<svg width="1247" height="159" viewBox="0 0 1247 159" fill="none" xmlns="http://www.w3.org/2000/svg">
<path fill-rule="evenodd" clip-rule="evenodd" d="M280.683 53.9451C266.501 53.9451 255 65.4333 255 79.6057C255 90.9427 262.359 100.56 272.565 103.953C273.851 104.189 274.319 103.397 274.319 102.716C274.319 102.108 274.297 100.493 274.284 98.3526C267.14 99.9027 265.632 94.9123 265.632 94.9123C264.464 91.9477 262.78 91.1585 262.78 91.1585C260.448 89.5675 262.956 89.599 262.956 89.599C265.535 89.7802 266.891 92.2438 266.891 92.2438C269.182 96.1646 272.903 95.032 274.366 94.3751C274.599 92.718 275.263 91.587 275.997 90.9458C270.293 90.2984 264.297 88.0962 264.297 78.2636C264.297 75.4628 265.298 73.1709 266.941 71.3782C266.676 70.7292 265.795 68.1191 267.193 64.5874C267.193 64.5874 269.349 63.8974 274.256 67.218C276.304 66.6478 278.502 66.3642 280.686 66.3532C282.868 66.3642 285.065 66.6478 287.116 67.218C292.02 63.8974 294.172 64.5874 294.172 64.5874C295.574 68.1191 294.692 70.7292 294.429 71.3782C296.075 73.1709 297.069 75.4628 297.069 78.2636C297.069 88.1214 291.063 90.2905 285.342 90.9254C286.263 91.7177 287.084 93.2835 287.084 95.6779C287.084 99.1072 287.053 101.875 287.053 102.716C287.053 103.403 287.517 104.201 288.819 103.951C299.018 100.55 306.37 90.9395 306.37 79.6057C306.37 65.4333 294.869 53.9451 280.683 53.9451Z" fill="white"/>
<path d="M386.032 68.1122C386.768 67.8615 387.52 67.6266 388.256 67.4072C388.131 66.8903 388.021 66.389 387.912 65.872C386.22 57.6635 387.332 51.0684 391.092 48.8909C394.71 46.8074 400.616 48.9693 406.6 54.1858C407.196 54.7027 407.775 55.2353 408.323 55.768C408.699 55.4077 409.075 55.0474 409.467 54.7027C415.733 49.1416 422.015 46.8074 425.774 48.9849C429.377 51.0841 430.458 57.2875 428.939 65.0575C428.782 65.8251 428.626 66.5926 428.422 67.3602C429.299 67.6109 430.176 67.8772 430.975 68.1748C438.338 70.7283 443.617 74.7542 443.617 78.9055C443.617 83.1978 437.993 87.5058 430.364 90.1218C429.738 90.3255 429.127 90.5291 428.485 90.7171C428.688 91.5474 428.876 92.362 429.033 93.1922C430.474 100.837 429.346 106.899 425.743 108.967C422.03 111.113 415.78 108.904 409.686 103.578C409.201 103.155 408.715 102.717 408.245 102.247C407.634 102.842 407.008 103.406 406.365 103.954C400.475 109.014 394.648 111.066 391.06 108.998C387.348 106.852 386.126 100.336 387.708 92.409C387.833 91.798 387.974 91.1871 388.115 90.5448C387.677 90.4195 387.254 90.2785 386.815 90.1532C378.873 87.5214 373.108 83.2761 373.108 78.9055C373.124 74.7386 378.544 70.6969 386.032 68.1122ZM404.673 56.4259C399.551 51.9613 394.773 50.2225 392.595 51.4757C390.261 52.8072 389.368 58.2117 390.841 65.2924C390.935 65.7624 391.029 66.2167 391.154 66.671C394.209 65.9817 397.311 65.4804 400.428 65.2141C402.214 62.6607 404.172 60.2012 406.287 57.8984C405.739 57.3972 405.222 56.9115 404.673 56.4259ZM420.589 86.0489C419.884 87.2394 419.164 88.4457 418.412 89.6206C420.558 89.3856 422.688 89.0409 424.803 88.5867C424.192 86.5972 423.44 84.545 422.563 82.4615C421.936 83.6678 421.279 84.874 420.589 86.0489ZM424.772 69.4907C422.782 69.0521 420.683 68.6918 418.49 68.4098C419.226 69.5534 419.931 70.7283 420.605 71.9032C421.279 73.0781 421.936 74.2686 422.563 75.4905C423.44 73.4384 424.161 71.4332 424.772 69.4907ZM420.997 78.9839C420.088 77.0884 419.101 75.2242 418.052 73.3914C417.002 71.5585 415.874 69.7884 414.699 68.0339C412.631 67.8772 410.532 67.7989 408.386 67.7989C406.24 67.7989 404.125 67.8772 402.073 68.0339C400.898 69.7727 399.786 71.5429 398.721 73.36C397.655 75.1772 396.668 77.0414 395.729 78.9212C396.653 80.8167 397.64 82.6965 398.705 84.545C399.755 86.3779 400.867 88.148 402.042 89.9182C404.094 90.0748 406.224 90.1375 408.386 90.1375C410.548 90.1375 412.647 90.0749 414.668 89.9495C415.858 88.195 417.002 86.4092 418.052 84.5763C419.101 82.7435 420.072 80.8794 420.997 78.9839ZM396.136 86.0332C395.431 84.827 394.773 83.5894 394.131 82.3519C393.253 84.3414 392.486 86.3779 391.797 88.4457C393.927 88.9313 396.089 89.2916 398.266 89.5422C397.514 88.3987 396.825 87.2081 396.136 86.0332ZM394.146 75.4905C394.789 74.2843 395.447 73.0624 396.136 71.8875C396.809 70.7126 397.514 69.5534 398.235 68.4255C396.011 68.7075 393.896 69.0678 391.922 69.5221C392.564 71.5585 393.3 73.5324 394.146 75.4905ZM408.339 60.0132C406.898 61.5798 405.535 63.2403 404.266 64.9478C406.992 64.8225 409.733 64.8225 412.459 64.9478C411.112 63.162 409.718 61.5014 408.339 60.0132ZM424.318 51.5697C421.999 50.2225 416.877 52.1493 411.456 56.9429C411.112 57.2405 410.767 57.5695 410.407 57.9141C412.537 60.2169 414.511 62.6607 416.313 65.2298C419.43 65.5117 422.516 65.9817 425.571 66.6553C425.743 65.9504 425.9 65.2298 426.056 64.5248C427.341 57.8514 426.495 52.8229 424.318 51.5697ZM427.686 87.866C428.265 87.6937 428.829 87.5214 429.393 87.3334C432.323 86.4092 435.659 84.9523 438.072 83.0412C439.466 82.0699 440.406 80.5974 440.656 78.9212C440.656 76.3991 436.302 73.1721 430.02 70.9946C429.236 70.7126 428.438 70.4776 427.639 70.2427C426.699 73.2347 425.571 76.1641 424.271 78.9995C425.602 81.8506 426.73 84.827 427.686 87.866ZM411.629 101.354C413.9 103.437 416.532 105.082 419.399 106.21C420.934 106.946 422.688 107.009 424.255 106.382C426.448 105.113 427.357 100.257 426.119 93.7092C425.962 92.9416 425.806 92.174 425.602 91.4064C422.516 92.0643 419.399 92.5186 416.25 92.7536C414.433 95.3227 412.443 97.7978 410.297 100.101C410.752 100.555 411.19 100.962 411.629 101.354ZM408.261 98.0015C409.671 96.4819 411.065 94.8058 412.428 93.0043C411.112 93.0669 409.749 93.0826 408.37 93.0826C406.945 93.0826 405.566 93.0512 404.188 92.9886C405.457 94.7431 406.82 96.4036 408.261 98.0015ZM390.261 102.137C390.387 103.813 391.217 105.38 392.533 106.445C394.726 107.714 399.394 106.053 404.423 101.73C405.002 101.229 405.582 100.696 406.177 100.148C404.078 97.8135 402.136 95.354 400.365 92.7693C397.217 92.503 394.068 92.033 390.982 91.3281C390.841 91.892 390.716 92.456 390.606 93.0043C389.932 95.9806 389.823 99.0824 390.261 102.137ZM387.755 87.3334C388.147 87.4588 388.523 87.5841 388.93 87.6937C389.901 84.686 391.076 81.7566 392.439 78.9055C391.123 76.1015 389.995 73.2034 389.071 70.2427C388.35 70.4463 387.661 70.6656 387.003 70.8849C380.58 73.0937 376.084 76.3678 376.084 78.8742C376.084 81.5843 380.894 85.062 387.755 87.3334ZM408.37 85.2656C404.893 85.2656 402.057 82.4459 402.057 78.9525C402.057 75.4748 404.877 72.6394 408.37 72.6394C411.864 72.6394 414.683 75.4592 414.683 78.9525C414.683 82.4459 411.848 85.2656 408.37 85.2656Z" fill="white"/>
<path d="M541.5 59.95H566.464V61.946H543.788V76.9682H565.112V78.9642H543.788V95.4572H566.724V97.4532H541.5V59.95ZM568.7 59.95H571.353L583.107 76.443L595.12 59.95L611.461 39.0001L584.615 78.1763L598.449 97.4532H595.693L583.107 79.9097L570.469 97.4532H567.764L581.702 78.1763L568.7 59.95ZM599.437 61.946V59.95H627.886V61.946H614.78V97.4532H612.491V61.946H599.437Z" fill="white"/>
<path d="M510.27 59.9501H513.13L552.574 119.325L536.274 97.4532L512.662 62.7864L512.558 97.4532H510.27V59.9501Z" fill="white"/>
<path d="M627.656 94.8548C628.129 94.8548 628.474 94.4904 628.474 94.0195C628.474 93.5485 628.129 93.1841 627.656 93.1841C627.189 93.1841 626.838 93.5485 626.838 94.0195C626.838 94.4904 627.189 94.8548 627.656 94.8548ZM629.905 92.6572C629.905 94.0475 630.901 94.9557 632.354 94.9557C633.901 94.9557 634.836 94.0195 634.836 92.3937V86.6697H633.589V92.3881C633.589 93.2907 633.138 93.7728 632.342 93.7728C631.63 93.7728 631.146 93.3243 631.129 92.6572H629.905ZM636.467 92.5843C636.556 94.0307 637.752 94.9557 639.534 94.9557C641.437 94.9557 642.628 93.9858 642.628 92.4385C642.628 91.222 641.949 90.5492 640.302 90.1624L639.417 89.9438C638.37 89.6971 637.947 89.3663 637.947 88.7889C637.947 88.0601 638.604 87.5835 639.589 87.5835C640.524 87.5835 641.17 88.0489 641.287 88.7945H642.5C642.428 87.4322 641.237 86.4735 639.606 86.4735C637.853 86.4735 636.684 87.4322 636.684 88.873C636.684 90.0615 637.346 90.7679 638.799 91.1098L639.834 91.3621C640.897 91.6144 641.365 91.9844 641.365 92.6011C641.365 93.3187 640.63 93.8401 639.628 93.8401C638.554 93.8401 637.808 93.3523 637.702 92.5843H636.467Z" fill="white"/>
<g clip-path="url(#clip0_2738:6449)">
<path d="M773.627 100.631H714.142C711.448 100.631 709.168 98.3613 709.168 95.678V63.0693C709.168 60.3863 711.448 58.1161 714.142 58.1161H773.42C776.114 58.1161 778.394 60.3863 778.394 63.0693V95.678C778.394 98.361 776.321 100.631 773.627 100.631V100.631ZM714.142 61.4181C713.313 61.4181 712.484 62.2437 712.484 63.0693V95.678C712.484 96.7099 713.313 97.3292 714.142 97.3292H773.42C774.456 97.3292 775.078 96.5036 775.078 95.678V63.0693C775.078 62.0374 774.249 61.4181 773.42 61.4181H714.142ZM719.116 90.7249V68.0224H725.749L732.381 76.2781L739.014 68.0224H745.646V90.7249H739.014V77.7225L732.381 85.9782L725.749 77.7225V90.7249H719.116V90.7249ZM760.776 90.7249L750.828 79.7864H757.46V68.0224H764.093V79.5802H770.725L760.777 90.7249H760.776Z" fill="white"/>
</g>
<path d="M990.661 91.5808L987.229 92.0349C987.229 92.0349 987 90.6725 985.856 89.7642C984.712 88.856 980.822 89.0831 980.822 91.3537C980.822 93.3973 982.424 93.1702 985.627 93.8514C988.602 94.5326 991.119 95.4408 991.119 99.528C991.119 101.799 989.517 104.523 984.483 104.523C976.245 104.523 976.932 98.3927 976.932 98.3927H980.593C980.593 98.3927 980.822 100.436 982.195 100.89C983.796 101.572 986.542 101.345 987 99.9821C987.458 98.6197 987.458 97.0303 983.11 96.5762C978.762 95.895 976.932 94.0785 976.932 91.1266C977.161 88.4019 978.762 86.1312 984.483 86.1312C990.203 86.3583 990.661 91.5808 990.661 91.5808V91.5808ZM974.872 91.5808L971.44 92.0349C971.44 92.0349 971.211 90.6725 970.067 89.7642C968.923 88.856 965.033 89.0831 965.033 91.3537C965.033 93.3973 966.635 93.1702 969.838 93.8514C972.813 94.5326 975.33 95.4408 975.33 99.528C975.33 101.799 973.728 104.523 968.694 104.523C960.457 104.523 961.143 98.3927 961.143 98.3927H965.033C965.033 98.3927 965.262 100.436 966.635 100.89C968.237 101.572 970.982 101.345 971.44 99.9821C971.898 98.6197 971.898 97.0303 967.55 96.5762C963.66 96.122 961.601 94.5326 961.601 92.0349V91.1266C961.83 88.4019 963.431 86.1312 968.923 86.1312C974.186 86.3583 974.872 91.5808 974.872 91.5808V91.5808ZM955.423 97.9386H959.313V98.1656C959.084 99.528 958.397 104.296 951.762 104.296C945.812 104.296 943.753 99.7551 943.753 94.9867C943.753 89.9913 946.727 86.3583 952.219 86.3583C958.397 86.3583 958.855 92.262 958.855 92.262L955.194 92.7161C955.194 92.7161 954.965 89.5372 951.762 89.5372C948.558 89.5372 947.414 92.0349 947.414 94.9867C947.414 97.9385 948.329 101.345 951.533 101.345C954.736 101.345 955.423 97.9386 955.423 97.9386V97.9386ZM935.973 86.8124V104.069H932.769V102.48C932.769 102.48 931.625 104.523 928.879 104.523C925.905 104.523 923.845 103.161 923.617 97.9386C923.617 92.489 927.049 91.1266 929.337 91.1266C931.396 91.1266 932.769 92.7161 932.769 92.7161V86.8124H935.973ZM932.769 97.7115C932.769 95.895 932.541 93.8514 929.795 93.8514C927.049 93.8514 927.049 97.0303 927.049 97.9386C927.049 99.0739 927.278 101.572 929.795 101.572C932.312 101.572 932.769 99.528 932.769 97.7115V97.7115ZM921.099 95.4408V103.842H917.667V95.6679C917.667 94.5326 916.981 93.6243 915.608 93.6243C914.235 93.6243 912.862 94.7597 912.862 95.895V103.842H909.43V91.1266H912.862V92.9431C912.862 92.9431 914.006 90.6725 917.438 90.8996C921.328 91.3537 921.099 94.9867 921.099 95.4408ZM903.251 91.3537H906.684V104.069H903.251V91.3537ZM903.251 86.8124H906.684V89.7642H903.251V86.8124ZM901.879 91.3537L898.217 104.069H894.785L892.497 95.6679L890.209 104.069H887.005L883.344 91.3537H887.005L888.836 99.528L891.353 91.3537H894.327L896.387 99.7551L898.217 91.3537H901.879ZM878.31 86.5854H881.742V103.842H878.31V86.5854ZM872.132 91.3537H875.564V104.069H872.132V91.3537ZM872.132 86.8124H875.564V89.7642H872.132V86.8124ZM869.386 95.895V103.842H866.182V102.253C866.182 102.253 865.267 103.388 863.894 103.842C861.835 104.523 858.86 104.069 857.945 101.799C857.258 99.9821 857.945 97.9385 859.775 97.0303C862.064 95.895 865.954 96.122 865.954 96.122C865.954 96.122 866.182 95.2138 865.725 94.5326C865.496 93.8514 864.809 93.6243 863.894 93.6243C861.606 93.6243 861.606 95.2138 861.606 95.2138L858.402 94.9867C858.402 94.9867 858.402 93.3973 860.004 92.262C860.92 91.5808 862.064 91.3537 864.123 91.3537C866.64 91.3537 869.386 92.2619 869.386 95.895V95.895ZM864.123 101.572C866.411 101.117 866.182 98.3927 866.182 98.3927H865.267C864.581 98.3927 863.665 98.3927 862.979 98.6197C861.835 98.8468 861.377 99.3009 861.148 99.7551C860.92 100.436 861.148 101.117 861.835 101.572C862.292 101.799 862.979 101.799 864.123 101.572V101.572ZM859.318 86.5854V89.9913H854.055V104.069H850.165V89.7642H845.131V86.5854H859.318Z" fill="white"/>
<path d="M943.989 59.2722C943.989 59.2722 940.78 64.1361 935.279 63.2097C929.778 62.2832 928.861 53.9449 919.004 53.9449C906.856 53.9449 905.48 64.3678 905.48 64.3678C905.48 64.3678 908.919 59.2722 914.191 60.1986C919.463 61.1251 921.526 69.4633 932.299 69.4633C943.072 69.4633 943.989 59.2722 943.989 59.2722V59.2722Z" fill="white"/>
<path d="M930.77 74.5933C930.77 74.5933 927.561 79.2771 922.06 78.385C916.559 77.4928 915.642 69.4634 905.786 69.4634C893.637 69.4634 892.262 79.5002 892.262 79.5002C892.262 79.5002 895.7 74.5933 900.972 75.4854C906.015 76.3776 908.307 84.407 919.08 84.407C929.853 84.407 930.77 74.5933 930.77 74.5933V74.5933Z" fill="white"/>
<defs>
<clipPath id="clip0_2738:6449">
<rect width="69.2258" height="42.545" fill="white" transform="translate(709.168 58.1161)"/>
</clipPath>
</defs>
</svg>
