<svg width="737" height="81" viewBox="0 0 737 81" fill="none" xmlns="http://www.w3.org/2000/svg">
<path fill-rule="evenodd" clip-rule="evenodd" d="M26.3507 14.9451C12.1691 14.9451 0.667969 26.4333 0.667969 40.6057C0.667969 51.9427 8.02684 61.5595 18.2334 64.9526C19.5185 65.1889 19.9868 64.3965 19.9868 63.716C19.9868 63.108 19.9647 61.4934 19.9521 59.3526C12.8077 60.9027 11.3002 55.9123 11.3002 55.9123C10.1318 52.9477 8.44783 52.1585 8.44783 52.1585C6.11576 50.5675 8.62443 50.599 8.62443 50.599C11.2025 50.7802 12.5585 53.2438 12.5585 53.2438C14.8496 57.1646 18.5708 56.032 20.0341 55.3751C20.2674 53.718 20.9313 52.587 21.6645 51.9458C15.9612 51.2984 9.96471 49.0962 9.96471 39.2636C9.96471 36.4628 10.966 34.1709 12.609 32.3782C12.3441 31.7292 11.4626 29.1191 12.8613 25.5874C12.8613 25.5874 15.0167 24.8974 19.9237 28.218C21.9719 27.6478 24.17 27.3642 26.3538 27.3532C28.5361 27.3642 30.7326 27.6478 32.784 28.218C37.6878 24.8974 39.8401 25.5874 39.8401 25.5874C41.2419 29.1191 40.3605 31.7292 40.0971 32.3782C41.7433 34.1709 42.7367 36.4628 42.7367 39.2636C42.7367 49.1214 36.7307 51.2905 31.0101 51.9254C31.9309 52.7177 32.7524 54.2835 32.7524 56.6779C32.7524 60.1072 32.7209 62.8749 32.7209 63.716C32.7209 64.4028 33.1845 65.2015 34.4869 64.951C44.6856 61.5501 52.0381 51.9395 52.0381 40.6057C52.0381 26.4333 40.5371 14.9451 26.3507 14.9451Z" fill="white"/>
<path d="M131.7 29.1122C132.436 28.8615 133.188 28.6266 133.924 28.4072C133.799 27.8903 133.689 27.389 133.58 26.872C131.888 18.6635 133 12.0684 136.76 9.89093C140.378 7.80745 146.284 9.96925 152.268 15.1858C152.863 15.7027 153.443 16.2353 153.991 16.768C154.367 16.4077 154.743 16.0474 155.135 15.7027C161.401 10.1416 167.683 7.80745 171.442 9.98492C175.045 12.0841 176.126 18.2875 174.607 26.0575C174.45 26.8251 174.294 27.5926 174.09 28.3602C174.967 28.6109 175.844 28.8772 176.643 29.1748C184.006 31.7283 189.285 35.7542 189.285 39.9055C189.285 44.1978 183.661 48.5058 176.032 51.1218C175.406 51.3255 174.795 51.5291 174.153 51.7171C174.356 52.5474 174.544 53.362 174.701 54.1922C176.142 61.8369 175.014 67.8993 171.411 69.9671C167.698 72.1133 161.448 69.9045 155.354 64.5783C154.869 64.1553 154.383 63.7167 153.913 63.2467C153.302 63.842 152.675 64.406 152.033 64.9543C146.143 70.0141 140.316 72.0663 136.728 69.9985C133.016 67.8523 131.794 61.3356 133.376 53.409C133.501 52.798 133.642 52.1871 133.783 51.5448C133.345 51.4195 132.922 51.2785 132.483 51.1532C124.541 48.5214 118.776 44.2761 118.776 39.9055C118.792 35.7386 124.212 31.6969 131.7 29.1122ZM150.341 17.4259C145.219 12.9613 140.441 11.2225 138.263 12.4757C135.929 13.8072 135.036 19.2117 136.509 26.2924C136.603 26.7624 136.697 27.2167 136.822 27.671C139.877 26.9817 142.979 26.4804 146.096 26.2141C147.882 23.6607 149.84 21.2012 151.955 18.8984C151.407 18.3972 150.89 17.9115 150.341 17.4259ZM166.257 47.0489C165.552 48.2394 164.832 49.4457 164.08 50.6206C166.226 50.3856 168.356 50.0409 170.471 49.5867C169.86 47.5972 169.108 45.545 168.231 43.4615C167.604 44.6678 166.947 45.874 166.257 47.0489ZM170.44 30.4907C168.45 30.0521 166.351 29.6918 164.158 29.4098C164.894 30.5534 165.599 31.7283 166.273 32.9032C166.947 34.0781 167.604 35.2686 168.231 36.4905C169.108 34.4384 169.829 32.4332 170.44 30.4907ZM166.665 39.9839C165.756 38.0884 164.769 36.2242 163.719 34.3914C162.67 32.5585 161.542 30.7884 160.367 29.0339C158.299 28.8772 156.2 28.7989 154.054 28.7989C151.908 28.7989 149.793 28.8772 147.741 29.0339C146.566 30.7727 145.454 32.5429 144.389 34.36C143.323 36.1772 142.336 38.0414 141.397 39.9212C142.321 41.8167 143.308 43.6965 144.373 45.545C145.422 47.3779 146.535 49.148 147.71 50.9182C149.762 51.0748 151.892 51.1375 154.054 51.1375C156.216 51.1375 158.315 51.0749 160.336 50.9495C161.526 49.195 162.67 47.4092 163.719 45.5763C164.769 43.7435 165.74 41.8794 166.665 39.9839ZM141.804 47.0332C141.099 45.827 140.441 44.5894 139.799 43.3519C138.921 45.3414 138.154 47.3779 137.465 49.4457C139.595 49.9313 141.757 50.2916 143.934 50.5422C143.182 49.3987 142.493 48.2081 141.804 47.0332ZM139.814 36.4905C140.457 35.2843 141.115 34.0624 141.804 32.8875C142.477 31.7126 143.182 30.5534 143.903 29.4255C141.678 29.7075 139.564 30.0678 137.59 30.5221C138.232 32.5585 138.968 34.5324 139.814 36.4905ZM154.007 21.0132C152.566 22.5798 151.203 24.2403 149.934 25.9478C152.66 25.8225 155.401 25.8225 158.127 25.9478C156.78 24.162 155.386 22.5014 154.007 21.0132ZM169.986 12.5697C167.667 11.2225 162.545 13.1493 157.124 17.9429C156.78 18.2405 156.435 18.5695 156.075 18.9141C158.205 21.2169 160.179 23.6607 161.981 26.2298C165.098 26.5117 168.184 26.9817 171.239 27.6553C171.411 26.9504 171.568 26.2298 171.724 25.5248C173.009 18.8514 172.163 13.8229 169.986 12.5697ZM173.354 48.866C173.933 48.6937 174.497 48.5214 175.061 48.3334C177.991 47.4092 181.327 45.9523 183.74 44.0412C185.134 43.0699 186.074 41.5974 186.324 39.9212C186.324 37.3991 181.969 34.1721 175.688 31.9946C174.904 31.7126 174.106 31.4776 173.307 31.2427C172.367 34.2347 171.239 37.1641 169.939 39.9995C171.27 42.8506 172.398 45.827 173.354 48.866ZM157.297 62.3538C159.568 64.4373 162.2 66.0822 165.067 67.2101C166.602 67.9463 168.356 68.009 169.923 67.3824C172.116 66.1135 173.025 61.2573 171.787 54.7092C171.63 53.9416 171.474 53.174 171.27 52.4064C168.184 53.0643 165.067 53.5186 161.918 53.7536C160.101 56.3227 158.111 58.7978 155.965 61.1006C156.419 61.5549 156.858 61.9622 157.297 62.3538ZM153.929 59.0015C155.339 57.4819 156.733 55.8058 158.096 54.0043C156.78 54.0669 155.417 54.0826 154.038 54.0826C152.613 54.0826 151.234 54.0512 149.856 53.9886C151.125 55.7431 152.488 57.4036 153.929 59.0015ZM135.929 63.1371C136.055 64.8133 136.885 66.3798 138.201 67.445C140.394 68.7139 145.062 67.0534 150.091 62.7298C150.67 62.2285 151.25 61.6959 151.845 61.1476C149.746 58.8135 147.804 56.354 146.033 53.7693C142.885 53.503 139.736 53.033 136.65 52.3281C136.509 52.892 136.384 53.456 136.274 54.0043C135.6 56.9806 135.491 60.0824 135.929 63.1371ZM133.423 48.3334C133.815 48.4588 134.191 48.5841 134.598 48.6937C135.569 45.686 136.744 42.7566 138.107 39.9055C136.791 37.1015 135.663 34.2034 134.739 31.2427C134.018 31.4463 133.329 31.6656 132.671 31.8849C126.248 34.0937 121.752 37.3678 121.752 39.8742C121.752 42.5843 126.562 46.062 133.423 48.3334ZM154.038 46.2656C150.561 46.2656 147.725 43.4459 147.725 39.9525C147.725 36.4748 150.545 33.6394 154.038 33.6394C157.532 33.6394 160.351 36.4592 160.351 39.9525C160.351 43.4459 157.516 46.2656 154.038 46.2656Z" fill="white"/>
<path d="M287.168 20.9499H312.132V22.9458H289.456V37.9681H310.78V39.9641H289.456V56.4571H312.392V58.453H287.168V20.9499ZM314.368 20.9499H317.021L328.775 37.4429L340.788 20.9499L357.129 0L330.283 39.1762L344.117 58.453H341.36L328.775 40.9095L316.137 58.453H313.432L327.37 39.1762L314.368 20.9499ZM345.105 22.9458V20.9499H373.554V22.9458H360.447V58.453H358.159V22.9458H345.105Z" fill="white"/>
<path d="M255.938 20.95H258.798L298.242 80.325L281.942 58.4531L258.33 23.7863L258.226 58.4531H255.938V20.95Z" fill="white"/>
<path d="M373.324 55.8547C373.797 55.8547 374.142 55.4903 374.142 55.0193C374.142 54.5484 373.797 54.184 373.324 54.184C372.857 54.184 372.506 54.5484 372.506 55.0193C372.506 55.4903 372.857 55.8547 373.324 55.8547ZM375.573 53.657C375.573 55.0474 376.569 55.9556 378.022 55.9556C379.569 55.9556 380.504 55.0193 380.504 53.3935V47.6696H379.257V53.3879C379.257 54.2905 378.806 54.7727 378.01 54.7727C377.298 54.7727 376.814 54.3242 376.797 53.657H375.573ZM382.135 53.5842C382.224 55.0306 383.42 55.9556 385.201 55.9556C387.105 55.9556 388.296 54.9857 388.296 53.4384C388.296 52.2218 387.617 51.5491 385.97 51.1623L385.085 50.9436C384.038 50.697 383.615 50.3662 383.615 49.7888C383.615 49.0599 384.272 48.5834 385.257 48.5834C386.192 48.5834 386.838 49.0487 386.955 49.7944H388.168C388.096 48.432 386.905 47.4734 385.274 47.4734C383.521 47.4734 382.352 48.432 382.352 49.8728C382.352 51.0614 383.014 51.7677 384.467 52.1097L385.502 52.362C386.565 52.6143 387.033 52.9843 387.033 53.601C387.033 54.3186 386.298 54.8399 385.296 54.8399C384.222 54.8399 383.476 54.3522 383.37 53.5842H382.135Z" fill="white"/>
<g clip-path="url(#clip0_2734:6425)">
<path d="M519.295 61.6311H459.81C457.116 61.6311 454.836 59.3611 454.836 56.6779V24.0691C454.836 21.3862 457.116 19.116 459.81 19.116H519.088C521.782 19.116 524.062 21.3862 524.062 24.0691V56.6779C524.062 59.3609 521.989 61.6311 519.295 61.6311V61.6311ZM459.81 22.418C458.981 22.418 458.152 23.2436 458.152 24.0691V56.6779C458.152 57.7097 458.981 58.329 459.81 58.329H519.088C520.124 58.329 520.746 57.5035 520.746 56.6779V24.0691C520.746 23.0373 519.917 22.418 519.088 22.418H459.81ZM464.784 51.7247V29.0223H471.417L478.049 37.278L484.682 29.0223H491.314V51.7247H484.682V38.7224L478.049 46.9781L471.417 38.7224V51.7247H464.784V51.7247ZM506.444 51.7247L496.496 40.7863H503.128V29.0223H509.761V40.58H516.393L506.445 51.7247H506.444Z" fill="white"/>
</g>
<path d="M736.329 52.5809L732.897 53.035C732.897 53.035 732.668 51.6726 731.524 50.7644C730.38 49.8561 726.49 50.0832 726.49 52.3538C726.49 54.3974 728.092 54.1703 731.295 54.8515C734.27 55.5327 736.787 56.441 736.787 60.5281C736.787 62.7988 735.185 65.5235 730.151 65.5235C721.913 65.5235 722.6 59.3928 722.6 59.3928H726.261C726.261 59.3928 726.49 61.4364 727.863 61.8905C729.464 62.5717 732.21 62.3446 732.668 60.9822C733.126 59.6199 733.126 58.0304 728.778 57.5763C724.43 56.8951 722.6 55.0786 722.6 52.1268C722.829 49.402 724.43 47.1313 730.151 47.1313C735.871 47.3584 736.329 52.5809 736.329 52.5809V52.5809ZM720.54 52.5809L717.108 53.035C717.108 53.035 716.879 51.6726 715.735 50.7644C714.591 49.8561 710.701 50.0832 710.701 52.3538C710.701 54.3974 712.303 54.1703 715.506 54.8515C718.481 55.5327 720.998 56.441 720.998 60.5281C720.998 62.7988 719.396 65.5235 714.362 65.5235C706.125 65.5235 706.811 59.3928 706.811 59.3928H710.701C710.701 59.3928 710.93 61.4364 712.303 61.8905C713.905 62.5717 716.65 62.3446 717.108 60.9822C717.566 59.6199 717.566 58.0304 713.218 57.5763C709.328 57.1222 707.269 55.5327 707.269 53.035V52.1268C707.498 49.402 709.099 47.1313 714.591 47.1313C719.854 47.3584 720.54 52.5809 720.54 52.5809V52.5809ZM701.091 58.9387H704.981V59.1657C704.752 60.5281 704.065 65.2965 697.429 65.2965C691.48 65.2965 689.421 60.7552 689.421 55.9868C689.421 50.9914 692.395 47.3584 697.887 47.3584C704.065 47.3584 704.523 53.2621 704.523 53.2621L700.862 53.7162C700.862 53.7162 700.633 50.5373 697.429 50.5373C694.226 50.5373 693.082 53.035 693.082 55.9868C693.082 58.9387 693.997 62.3446 697.201 62.3446C700.404 62.3446 701.091 58.9387 701.091 58.9387V58.9387ZM681.641 47.8125V65.0694H678.437V63.48C678.437 63.48 677.293 65.5235 674.547 65.5235C671.573 65.5235 669.513 64.1611 669.284 58.9387C669.284 53.4891 672.717 52.1268 675.005 52.1268C677.064 52.1268 678.437 53.7162 678.437 53.7162V47.8125H681.641ZM678.437 58.7116C678.437 56.8951 678.209 54.8515 675.463 54.8515C672.717 54.8515 672.717 58.0304 672.717 58.9387C672.717 60.074 672.946 62.5717 675.463 62.5717C677.98 62.5717 678.437 60.5281 678.437 58.7116V58.7116ZM666.767 56.441V64.8423H663.335V56.668C663.335 55.5327 662.649 54.6245 661.276 54.6245C659.903 54.6245 658.53 55.7598 658.53 56.8951V64.8423H655.098V52.1268H658.53V53.9433C658.53 53.9433 659.674 51.6726 663.106 51.8997C666.996 52.3538 666.767 55.9868 666.767 56.441ZM648.919 52.3538H652.352V65.0694H648.919V52.3538ZM648.919 47.8125H652.352V50.7644H648.919V47.8125ZM647.546 52.3538L643.885 65.0694H640.453L638.165 56.668L635.877 65.0694H632.673L629.012 52.3538H632.673L634.504 60.5281L637.021 52.3538H639.995L642.055 60.7552L643.885 52.3538H647.546ZM623.978 47.5855H627.41V64.8423H623.978V47.5855ZM617.8 52.3538H621.232V65.0694H617.8V52.3538ZM617.8 47.8125H621.232V50.7644H617.8V47.8125ZM615.054 56.8951V64.8423H611.85V63.2529C611.85 63.2529 610.935 64.3882 609.562 64.8423C607.503 65.5235 604.528 65.0694 603.613 62.7988C602.926 60.9822 603.613 58.9387 605.443 58.0304C607.732 56.8951 611.622 57.1222 611.622 57.1222C611.622 57.1222 611.85 56.2139 611.393 55.5327C611.164 54.8515 610.477 54.6245 609.562 54.6245C607.274 54.6245 607.274 56.2139 607.274 56.2139L604.07 55.9868C604.07 55.9868 604.07 54.3974 605.672 53.2621C606.587 52.5809 607.732 52.3538 609.791 52.3538C612.308 52.3538 615.054 53.2621 615.054 56.8951V56.8951ZM609.791 62.5717C612.079 62.1176 611.85 59.3928 611.85 59.3928H610.935C610.249 59.3928 609.333 59.3928 608.647 59.6199C607.503 59.8469 607.045 60.3011 606.816 60.7552C606.587 61.4364 606.816 62.1176 607.503 62.5717C607.96 62.7988 608.647 62.7988 609.791 62.5717V62.5717ZM604.986 47.5855V50.9914H599.723V65.0694H595.833V50.7644H590.799V47.5855H604.986Z" fill="white"/>
<path d="M689.657 20.2723C689.657 20.2723 686.448 25.1363 680.947 24.2098C675.446 23.2833 674.529 14.9451 664.672 14.9451C652.524 14.9451 651.148 25.3679 651.148 25.3679C651.148 25.3679 654.587 20.2723 659.859 21.1988C665.131 22.1252 667.194 30.4635 677.967 30.4635C688.74 30.4635 689.657 20.2723 689.657 20.2723V20.2723Z" fill="white"/>
<path d="M676.438 35.5933C676.438 35.5933 673.229 40.2771 667.728 39.385C662.227 38.4928 661.31 30.4634 651.454 30.4634C639.305 30.4634 637.93 40.5002 637.93 40.5002C637.93 40.5002 641.368 35.5933 646.64 36.4854C651.683 37.3776 653.975 45.407 664.748 45.407C675.521 45.407 676.438 35.5933 676.438 35.5933V35.5933Z" fill="white"/>
<defs>
<clipPath id="clip0_2734:6425">
<rect width="69.2258" height="42.545" fill="white" transform="translate(454.836 19.116)"/>
</clipPath>
</defs>
</svg>
